<svg width="1440" height="317" viewBox="0 0 1440 317" fill="none" xmlns="http://www.w3.org/2000/svg">
<path fill-rule="evenodd" clip-rule="evenodd" d="M0 0L34.8 33.0208C68.4 66.0417 136.8 132.083 205.2 132.083C274.8 132.083 343.2 66.0417 411.6 39.625C480 13.2083 548.4 26.4167 616.8 66.0417C685.2 105.667 754.8 171.708 823.2 211.333C891.6 250.958 960 264.167 1028.4 257.562C1096.8 250.958 1165.2 224.542 1234.8 191.521C1303.2 158.5 1371.6 118.875 1405.2 99.0625L1440 79.25V317H1405.2C1371.6 317 1303.2 317 1234.8 317C1165.2 317 1096.8 317 1028.4 317C960 317 891.6 317 823.2 317C754.8 317 685.2 317 616.8 317C548.4 317 480 317 411.6 317C343.2 317 274.8 317 205.2 317C136.8 317 68.4 317 34.8 317H0V0Z" fill="#00866E"/>
<path fill-rule="evenodd" clip-rule="evenodd" d="M0 0L34.8 33.0208C68.4 66.0417 136.8 132.083 205.2 132.083C274.8 132.083 343.2 66.0417 411.6 39.625C480 13.2083 548.4 26.4167 616.8 66.0417C685.2 105.667 754.8 171.708 823.2 211.333C891.6 250.958 960 264.167 1028.4 257.562C1096.8 250.958 1165.2 224.542 1234.8 191.521C1303.2 158.5 1371.6 118.875 1405.2 99.0625L1440 79.25V317H1405.2C1371.6 317 1303.2 317 1234.8 317C1165.2 317 1096.8 317 1028.4 317C960 317 891.6 317 823.2 317C754.8 317 685.2 317 616.8 317C548.4 317 480 317 411.6 317C343.2 317 274.8 317 205.2 317C136.8 317 68.4 317 34.8 317H0V0Z" fill="black" fill-opacity="0.2"/>
<path fill-rule="evenodd" clip-rule="evenodd" d="M0 0L34.8 33.0208C68.4 66.0417 136.8 132.083 205.2 132.083C274.8 132.083 343.2 66.0417 411.6 39.625C480 13.2083 548.4 26.4167 616.8 66.0417C685.2 105.667 754.8 171.708 823.2 211.333C891.6 250.958 960 264.167 1028.4 257.562C1096.8 250.958 1165.2 224.542 1234.8 191.521C1303.2 158.5 1371.6 118.875 1405.2 99.0625L1440 79.25V317H1405.2C1371.6 317 1303.2 317 1234.8 317C1165.2 317 1096.8 317 1028.4 317C960 317 891.6 317 823.2 317C754.8 317 685.2 317 616.8 317C548.4 317 480 317 411.6 317C343.2 317 274.8 317 205.2 317C136.8 317 68.4 317 34.8 317H0V0Z" stroke="black"/>
</svg>
